<svg width="46" height="49" viewBox="0 0 46 49" fill="none" xmlns="http://www.w3.org/2000/svg">
<path fill-rule="evenodd" clip-rule="evenodd" d="M23.12 0.588745C24.1597 0.588745 25.0025 1.43157 25.0025 2.47125V3.49101C30.3043 3.93417 35.3031 6.23849 39.0936 10.029C43.33 14.2654 45.71 20.0113 45.71 26.0025C45.71 30.4704 44.3852 34.8379 41.9029 38.5528C39.4207 42.2677 35.8926 45.1632 31.7649 46.8729C27.6371 48.5827 23.095 49.0301 18.7129 48.1584C14.3309 47.2868 10.3058 45.1353 7.1465 41.976C3.98723 38.8168 1.83574 34.7916 0.9641 30.4096C0.0924598 26.0276 0.539817 21.4855 2.2496 17.3577C3.31932 14.7751 4.85313 12.4274 6.76137 10.4236L5.78766 9.44987C5.0525 8.71471 5.0525 7.52278 5.78766 6.78762C6.52282 6.05246 7.71475 6.05246 8.44992 6.78762L9.58133 7.91903C9.90389 7.67754 10.2334 7.44428 10.5697 7.2196C13.7608 5.08739 17.4334 3.80915 21.2375 3.49106V2.47125C21.2375 1.43157 22.0804 0.588745 23.12 0.588745ZM23.12 7.1775C19.3968 7.1775 15.7572 8.28156 12.6614 10.3501C9.56567 12.4186 7.15283 15.3587 5.72801 18.7985C4.30319 22.2383 3.93039 26.0234 4.65676 29.6751C5.38312 33.3268 7.17603 36.6811 9.80875 39.3138C12.4415 41.9465 15.7958 43.7394 19.4475 44.4658C23.0992 45.1921 26.8842 44.8193 30.3241 43.3945C33.7639 41.9697 36.7039 39.5569 38.7725 36.4611C40.841 33.3654 41.945 29.7257 41.945 26.0025C41.945 21.0098 39.9617 16.2216 36.4313 12.6912C32.901 9.16084 28.1127 7.1775 23.12 7.1775ZM23.12 10.0012C24.1597 10.0012 25.0025 10.8441 25.0025 11.8837V20.6764C27.196 21.4516 28.7675 23.5435 28.7675 26.0025C28.7675 29.1215 26.2391 31.65 23.12 31.65C20.001 31.65 17.4725 29.1215 17.4725 26.0025C17.4725 23.5435 19.0441 21.4516 21.2375 20.6764V11.8837C21.2375 10.8441 22.0804 10.0012 23.12 10.0012ZM23.12 24.12C22.0804 24.12 21.2375 24.9628 21.2375 26.0025C21.2375 27.0422 22.0804 27.885 23.12 27.885C24.1597 27.885 25.0025 27.0422 25.0025 26.0025C25.0025 24.9628 24.1597 24.12 23.12 24.12Z" fill="#323238"/>
</svg>
