<svg width="49" height="49" viewBox="0 0 49 49" fill="none" xmlns="http://www.w3.org/2000/svg">
<path fill-rule="evenodd" clip-rule="evenodd" d="M0.538757 24.54C0.538757 11.2889 11.2889 0.538757 24.54 0.538757C37.7911 0.538757 48.5413 11.2889 48.5413 24.54C48.5413 37.7911 37.7911 48.5413 24.54 48.5413C11.2889 48.5413 0.538757 37.7911 0.538757 24.54ZM24.54 4.23126C13.3283 4.23126 4.23126 13.3283 4.23126 24.54C4.23126 35.7518 13.3283 44.8488 24.54 44.8488C35.7518 44.8488 44.8488 35.7518 44.8488 24.54C44.8488 13.3283 35.7518 4.23126 24.54 4.23126Z" fill="#323238"/>
<path fill-rule="evenodd" clip-rule="evenodd" d="M19.0013 15.3088C20.0209 15.3088 20.8475 16.1354 20.8475 17.155V31.925C20.8475 32.9447 20.0209 33.7713 19.0013 33.7713C17.9816 33.7713 17.155 32.9447 17.155 31.925V17.155C17.155 16.1354 17.9816 15.3088 19.0013 15.3088Z" fill="#323238"/>
<path fill-rule="evenodd" clip-rule="evenodd" d="M30.0788 15.3088C31.0984 15.3088 31.925 16.1354 31.925 17.155V31.925C31.925 32.9447 31.0984 33.7713 30.0788 33.7713C29.0591 33.7713 28.2325 32.9447 28.2325 31.925V17.155C28.2325 16.1354 29.0591 15.3088 30.0788 15.3088Z" fill="#323238"/>
</svg>
